<svg xmlns="http://www.w3.org/2000/svg" viewBox="-380 40 50 50">
  <path fill="#0E68AB" d="M-352.512,83.719c-4.787,4.871-10.684,7.307-17.688,7.307c-7.861,0-14.098-2.69-18.711-8.073  c-4.617-5.379-6.924-11.572-6.924-18.574c0-7.605,2.572-14.076,7.719-19.414s11.486-8.006,19.029-8.006  c7.861,0,14.234,2.703,19.115,8.108c4.877,5.41,7.318,11.9,7.318,19.481c0,7.001-2.189,12.756-6.561,17.262  c3.242-6.838,4.863-13.104,4.863-18.797c0-4.195-1.029-7.813-3.088-10.854c-2.061-3.039-4.752-4.559-8.076-4.559  c-2.732,0-5.184,1.111-7.352,3.328c-2.172,2.223-3.256,4.72-3.256,7.49c0,2.447,0.799,4.479,2.398,6.094  c1.598,1.619,3.512,2.428,5.746,2.428c2.395,0,4.412-0.852,6.051-2.561c1.639-1.705,2.459-3.742,2.459-6.111  c0-2.688-1.312-4.033-3.938-4.033c-0.641,0-1.227,0.068-1.758,0.205c1.92-2.366,3.973-3.55,6.162-3.55  c2.508,0,4.631,1.059,6.367,3.174c1.732,2.119,2.602,4.65,2.602,7.592c0,3.986-1.389,7.389-4.164,10.207  c-2.773,2.822-6.176,4.23-10.205,4.23c-4.189,0-7.75-1.434-10.686-4.298c-2.939-2.862-4.408-6.389-4.408-10.582  c0-5.029,1.902-9.303,5.703-12.826c3.799-3.518,8.387-5.278,13.764-5.278c5.215,0,9.635,1.863,13.256,5.585  c3.617,3.727,5.426,8.273,5.426,13.639C-344.793,69.697-347.406,76.969-352.512,83.719z"/>
</svg>
