<svg xmlns="http://www.w3.org/2000/svg" viewBox="-450 40 50 50">
  <path fill="#F8F6D8" d="M-427.309,57.064c-6.561-3.699-10.768-5.551-12.617-5.551c-1.344,0-2.395,1.032-3.154,3.092  c-0.76,2.064-1.139,3.729-1.139,4.998c0,2.691,1.492,5.092,4.482,7.203c2.986,2.111,5.703,3.166,8.15,3.166  c3.785,0,6.941-1.688,9.471-5.063c2.525-3.375,3.789-6.965,3.789-10.771c0-4.271-1.582-7.992-4.748-11.162  c-3.162-3.164-6.887-4.746-11.162-4.746c-4.861,0-8.992,1.688-12.393,5.063c-3.404,3.379-5.105,7.477-5.105,12.295  c0,4.02,1.352,7.477,4.053,10.373c2.703,2.895,5.975,4.344,9.82,4.344c2.609,0,5.428-0.844,8.451-2.533  c0.168-0.084,0.887-0.506,2.154-1.266s2.102-1.266,2.523-1.266c0.842,0,1.266,0.715,1.266,2.143  C-423.469,70.604-425.143,73.396-428.49,76.188z"/>
</svg>
